<?xml version="1.0" standalone="no"?><!DOCTYPE svg PUBLIC "-//W3C//DTD SVG 1.1//EN" "http://www.w3.org/Graphics/SVG/1.1/DTD/svg11.dtd"><svg t="1576632223884" class="icon" viewBox="0 0 1024 1024" version="1.1" xmlns="http://www.w3.org/2000/svg" p-id="2317" width="64" height="64" xmlns:xlink="http://www.w3.org/1999/xlink"><defs><style type="text/css"></style></defs><path d="M670.272 750.464c0 0-81.472-48.064-97.536-59.968-16-11.84-32.704 20.928-53.568 41.152-20.928 20.16-18.112 16.768-65.472-9.088-47.424-25.728-95.424-89.152-112.192-114.88C324.736 581.888 333.76 572.16 333.76 572.16s41.856-33.472 51.648-43.264c9.664-9.728 6.912-16 6.912-16L324.032 411.968C311.488 409.28 289.92 414.656 255.808 442.56 221.632 470.4 209.152 534.528 273.216 652.16c64.128 117.76 184.64 175.616 257.728 198.656 73.216 22.912 121.216-32.768 132.288-55.04C674.496 773.44 670.272 750.464 670.272 750.464z" p-id="2318" fill="#ffffff"></path><path d="M766.976 64l-510.08 0C192.576 64 140.352 116.16 140.352 180.608l0 662.72C140.352 907.84 192.576 960 256.96 960l510.08 0c64.512 0 116.608-52.16 116.608-116.608L883.648 180.608C883.648 116.16 831.488 64 766.976 64zM825.152 791.232c0 54.336-44.032 98.304-98.24 98.304L297.088 889.536c-54.208 0-98.24-44.032-98.24-98.304L198.848 232.768c0-54.272 44.032-98.304 98.24-98.304l429.824 0c54.272 0 98.24 44.032 98.24 98.304L825.152 791.232z" p-id="2319" fill="#ffffff"></path><path d="M713.984 235.84c0 6.656-5.376 12.032-12.032 12.032l-288 0c-6.656 0-12.032-5.376-12.032-12.032l0 0c0-6.656 5.376-12.032 12.032-12.032l288 0C708.608 223.808 713.984 229.184 713.984 235.84L713.984 235.84z" p-id="2320" fill="#ffffff"></path><path d="M713.984 319.808c0 6.656-5.376 12.032-12.032 12.032l-288 0c-6.656 0-12.032-5.376-12.032-12.032l0 0c0-6.656 5.376-12.032 12.032-12.032l288 0C708.608 307.84 713.984 313.216 713.984 319.808L713.984 319.808z" p-id="2321" fill="#ffffff"></path><path d="M713.984 413.568c0 6.656-5.376 11.968-12.032 11.968l-288 0c-6.656 0-12.032-5.312-12.032-11.968l0 0c0-6.656 5.376-12.032 12.032-12.032l288 0C708.608 401.6 713.984 406.912 713.984 413.568L713.984 413.568z" p-id="2322" fill="#ffffff"></path></svg>